<svg height="100%" width="100%" version="1.1" viewBox="0 0 500 500" xmlns="http://www.w3.org/2000/svg">
 <metadata id="metadata7">image/svg+xml</metadata>

 <g>
  <title>background</title>
  <rect fill="none" id="canvas_background" height="402" width="582" y="-1" x="-1"/>
 </g>
 <g>
  <title>Layer 1</title>
  <g fill="#969696" transform="matrix(0.67777553,0,0,0.67777553,263.15496,118.9305) " id="g5712">
   <path fill="#969696" d="m267.15,92.085c10.21,-15.985 43.17,-37.055 43.17,-37.055l1.1258,-0.9699l-1.1258,-0.96412s-32.415,-20.436 -42.156,-36.186c-3.716,-6.0088 -5.49,-13.498 -5.167,-20.555c0.86691,-18.943 18.849,-53.673 18.849,-53.673l0.4965,-1.4058l-1.4577,-0.27134s-38.377,-1.4982 -54.727,-10.285c-6.1563,-3.3084 -11.385,-8.8425 -14.6,-15.048c-8.7467,-16.88 -10.539,-56.052 -10.539,-56.052l-0.26846,-1.4606l-1.3942,0.48784s-33.966,17.844 -52.507,18.445c-7.3552,0.23855 -15.053,-1.9982 -21.26,-5.9522c-16.477,-10.497 -38.175,-44.474 -38.175,-44.474l-0.9699,-1.1258l-0.96412,1.1258s-21.638,34.079 -38.181,44.477c-5.0801,3.1929 -11.396,4.8726 -17.392,4.6416c-19.515,-0.75177 -55.278,-19.418 -55.278,-19.418l-1.3971,-0.49072l-0.27423,1.4577s-1.6896,40.323 -10.825,57.588c-2.6373,4.9842 -6.9981,9.3096 -11.988,11.936c-16.824,8.8554 -56.055,10.536 -56.055,10.536l-1.4606,0.27422l0.49649,1.3971s17.839,33.911 18.414,52.423c0.21868,7.0413 -1.9598,14.4 -5.753,20.336c-10.222,15.998 -43.218,37.096 -43.218,37.096l-1.1229,0.96701l1.1229,0.96413s32.4,20.421 42.127,36.166c3.7301,6.0379 5.5008,13.564 5.1728,20.654c-0.87518,18.917 -18.832,53.601 -18.832,53.601l-0.49072,1.3971l1.4548,0.27422s38.272,1.4909 54.574,10.259c6.2397,3.3561 11.534,8.9725 14.791,15.264c8.7113,16.827 10.499,55.867 10.499,55.867l0.27712,1.4606l1.4,-0.49938s33.812,-17.784 52.27,-18.359c7.1269,-0.22189 14.575,1.9808 20.584,5.8194c15.954,10.192 36.995,43.094 36.995,43.094l0.9699,1.1287l0.96701,-1.1287s20.382,-32.329 36.091,-42.043c6.0797,-3.7597 13.657,-5.5552 20.798,-5.2276c18.889,0.86639 53.517,18.806 53.517,18.806l1.4116,0.49072l0.26268,-1.4606s1.4982,-38.247 10.256,-54.542c3.3576,-6.2472 8.9727,-11.554 15.27,-14.817c16.824,-8.7166 55.867,-10.496 55.867,-10.496l1.4577,-0.28289l-0.48784,-1.3971s-17.808,-33.857 -18.39,-52.34c-0.22333,-7.0805 1.9556,-14.483 5.7674,-20.454l0.00187,-0.00039z" id="path5714"/>
  </g>
  <g stroke="#ffa900" stroke-width="10" stroke-miterlimit="4" fill="#ffc800" transform="matrix(0.61110825,0,0,0.61110825,268.9182,122.34779) " id="g3">
   <path stroke="#ffa900" stroke-width="10" stroke-miterlimit="4" fill="#ffc800" d="m267.15,92.085c10.21,-15.985 43.17,-37.055 43.17,-37.055l1.1258,-0.9699l-1.1258,-0.96412s-32.415,-20.436 -42.156,-36.186c-3.716,-6.0088 -5.49,-13.498 -5.167,-20.555c0.86691,-18.943 18.849,-53.673 18.849,-53.673l0.4965,-1.4058l-1.4577,-0.27134s-38.377,-1.4982 -54.727,-10.285c-6.1563,-3.3084 -11.385,-8.8425 -14.6,-15.048c-8.7467,-16.88 -10.539,-56.052 -10.539,-56.052l-0.26846,-1.4606l-1.3942,0.48784s-33.966,17.844 -52.507,18.445c-7.3552,0.23855 -15.053,-1.9982 -21.26,-5.9522c-16.477,-10.497 -38.175,-44.474 -38.175,-44.474l-0.9699,-1.1258l-0.96412,1.1258s-21.638,34.079 -38.181,44.477c-5.0801,3.1929 -11.396,4.8726 -17.392,4.6416c-19.515,-0.75177 -55.278,-19.418 -55.278,-19.418l-1.3971,-0.49072l-0.27423,1.4577s-1.6896,40.323 -10.825,57.588c-2.6373,4.9842 -6.9981,9.3096 -11.988,11.936c-16.824,8.8554 -56.055,10.536 -56.055,10.536l-1.4606,0.27422l0.49649,1.3971s17.839,33.911 18.414,52.423c0.21868,7.0413 -1.9598,14.4 -5.753,20.336c-10.222,15.998 -43.218,37.096 -43.218,37.096l-1.1229,0.96701l1.1229,0.96413s32.4,20.421 42.127,36.166c3.7301,6.0379 5.5008,13.564 5.1728,20.654c-0.87518,18.917 -18.832,53.601 -18.832,53.601l-0.49072,1.3971l1.4548,0.27422s38.272,1.4909 54.574,10.259c6.2397,3.3561 11.534,8.9725 14.791,15.264c8.7113,16.827 10.499,55.867 10.499,55.867l0.27712,1.4606l1.4,-0.49938s33.812,-17.784 52.27,-18.359c7.1269,-0.22189 14.575,1.9808 20.584,5.8194c15.954,10.192 36.995,43.094 36.995,43.094l0.9699,1.1287l0.96701,-1.1287s20.382,-32.329 36.091,-42.043c6.0797,-3.7597 13.657,-5.5552 20.798,-5.2276c18.889,0.86639 53.517,18.806 53.517,18.806l1.4116,0.49072l0.26268,-1.4606s1.4982,-38.247 10.256,-54.542c3.3576,-6.2472 8.9727,-11.554 15.27,-14.817c16.824,-8.7166 55.867,-10.496 55.867,-10.496l1.4577,-0.28289l-0.48784,-1.3971s-17.808,-33.857 -18.39,-52.34c-0.22333,-7.0805 1.9556,-14.483 5.7674,-20.454l0.00187,-0.00039z" id="path5"/>
  </g>
  <path stroke="#ff9b00" stroke-width="6.111083" stroke-miterlimit="4" fill="#ff9d00" d="m334.09,71.199c-45.46,-7.1561 -88.116,24.292 -94.96,70.057c-7.1622,45.46 24.285,88.116 70.051,94.96c45.772,6.8505 88.116,-24.285 95.272,-70.051c6.8505,-45.46 -24.597,-88.116 -70.363,-94.966z" id="path4808"/>
  <path stroke="#969696" stroke-miterlimit="4" stroke-width="15" fill="#eeeeee" d="m421.36,214.37c-4.6702,-7.3101 -10.458,-13.808 -17.362,-19.493c-24.13,-19.04 -49.933,-21.535 -70.968,-19.975c-11.529,-45.217 -40.786,-71.024 -84.37,-71.473c-12.59,0 -24.57,2.5382 -35.941,7.6146s-21.219,11.574 -29.545,19.494c-8.3254,7.9192 -14.924,17.869 -19.798,29.849c-5.4868,15.355 -6.8295,23.692 -7.0055,39.545c-15.682,-3.9634 -37.045,-4.9672 -50.256,0.30459c-15.839,6.9039 -27.006,18.681 -33.504,35.332c-4.0611,11.168 -5.2795,22.133 -3.655,32.896c1.6244,10.762 5.9902,20.61 13.097,29.545c7.107,8.9345 16.042,15.432 26.803,19.493c7.5132,2.8428 14.924,4.2642 22.235,4.2642l218.69,0c17.463,0 33.504,2.7385 48.125,-7.2113c35.583,-25.102 42.547,-69.324 23.453,-100.18l0.0015,-0.00509z" id="path4-4"/>
  <path stroke="#969696" stroke-miterlimit="4" stroke-width="11.997" fill="#ffffff" d="m369.75,372.68q2.9665,1.5974 3.7652,4.9062q0.79868,3.3088 -0.79868,6.2754l-3.9934,6.9599q-1.7115,2.9665 -5.0203,3.7652q-3.3088,0.79869 -6.1612,-0.79868l-17,-9.6983l0,19.511q0,3.3088 -2.396,5.7049q-2.396,2.396 -5.7049,2.5101l-8.1009,0q-3.3088,0 -5.819,-2.5101q-2.5101,-2.5101 -2.396,-5.7049l0,-19.511l-16.886,9.6983q-2.9665,1.7115 -6.2754,0.79868q-3.3088,-0.91277 -4.9062,-3.7652l-4.1075,-6.9599q-1.5974,-2.9665 -0.79868,-6.2754q0.79868,-3.3088 3.8793,-4.9062l16.886,-9.8124l-16.886,-9.8124q-2.9665,-1.5974 -3.8793,-4.9062q-0.91278,-3.3088 0.79868,-6.2754l4.1075,-6.9599q1.7115,-2.9665 4.9062,-3.7652q3.1947,-0.79868 6.2754,0.79868l16.886,9.6983l0,-19.511q0,-3.3088 2.396,-5.7049q2.396,-2.396 5.819,-2.5101l8.1009,0q3.3088,0 5.7049,2.5101q2.396,2.5101 2.396,5.7049l0,19.511l17,-9.6983q2.9665,-1.7115 6.1612,-0.79868q3.1947,0.91278 5.0203,3.7652l3.9934,6.9599q1.7115,2.9665 0.79868,6.2754q-0.91277,3.3088 -3.7652,4.9062l-16.886,9.8124l16.886,9.8124z" id="path4"/>
  <metadata transform="matrix(0.11111111773384952,0,0,0.11111111773384952,0,0) " id="svg_20">image/svg+xml</metadata>
  <metadata transform="matrix(0.11111111773384952,0,0,0.11111111773384952,0,0) " id="svg_36">image/svg+xml</metadata>
  <g stroke="null" id="svg_40">
   <g stroke="null" transform="matrix(0.9895973265846439,0,0,0.9915892505567622,-591.889124047547,-2474.311468416283) " id="svg_38">
    <title stroke="null" transform="translate(-68.14859771728516,-64.16356658935547) translate(-434.1200866699219,-370.59783935546875) translate(595.1646118164062,196.0050811767578) translate(-210.05810546875,34.58913040161133) translate(202.3959197998047,-485.4048767089844) translate(-1484.9998779296875,1187.9998779296875) translate(2000,0) translate(0,2000) ">background</title>
    <rect stroke="null" fill="none" id="svg_35" height="502" width="502" y="2497.427807" x="599.233864"/>
   </g>
   <g stroke="null" transform="matrix(0.9895973265846439,0,0,0.9915892505567622,-591.889124047547,-2474.311468416283) " id="svg_39">
    <title stroke="null" transform="translate(-68.14859771728516,-64.16356658935547) translate(-434.1200866699219,-370.59783935546875) translate(595.1646118164062,196.0050811767578) translate(-210.05810546875,34.58913040161133) translate(202.3959197998047,-485.4048767089844) translate(-1484.9998779296875,1187.9998779296875) translate(2000,0) translate(0,2000) ">Layer 1</title>
    <path stroke="#969696" stroke-width="11.991557" stroke-miterlimit="4" fill="#3dade2" d="m807.833864,2757.637807l-48.322,34.125c-10.211,7.1853 -16.444,19.537 -15.313,32.839c1.6508,20.05 19.322,34.914 39.372,33.263c20.05,-1.6509 34.914,-19.322 33.263,-39.372l-5.017,-58.997c-0.14954,-1.9622 -2.287,-2.959 -3.9835,-1.8575l0.0005,-0.0005z" id="svg_34"/>
    <metadata stroke="null" transform="translate(-68.14859771728516,-64.16356658935547) translate(-434.1200866699219,-370.59783935546875) translate(595.1646118164062,196.0050811767578) translate(-210.05810546875,34.58913040161133) translate(202.3959197998047,-485.4048767089844) translate(-1484.9998779296875,1187.9998779296875) translate(2000,0) translate(0,2000) " id="svg_33">image/svg+xml</metadata>
    <metadata stroke="null" transform="translate(-68.14859771728516,-64.16356658935547) translate(-434.1200866699219,-370.59783935546875) translate(595.1646118164062,196.0050811767578) translate(-210.05810546875,34.58913040161133) translate(202.3959197998047,-485.4048767089844) translate(-1484.9998779296875,1187.9998779296875) translate(2000,0) translate(0,2000) " id="svg_32">image/svg+xml</metadata>
   </g>
  </g>
 </g>
</svg>