<?xml version="1.0" encoding="UTF-8" standalone="no"?>
<svg id="svg2" xmlns:rdf="http://www.w3.org/1999/02/22-rdf-syntax-ns#" xmlns="http://www.w3.org/2000/svg" height="500" width="500" version="1.1" xmlns:cc="http://creativecommons.org/ns#" xmlns:xlink="http://www.w3.org/1999/xlink" xmlns:dc="http://purl.org/dc/elements/1.1/">
 <metadata id="metadata7">/svg+xml
  <rdf:RDF>
   <cc:Work rdf:about="">
    <dc:format>image/svg+xml</dc:format>
    <dc:type rdf:resource="http://purl.org/dc/dcmitype/StillImage"/>
    <dc:title/>
   </cc:Work>
  </rdf:RDF>
 </metadata>
 <g id="g6">
  <title id="title3">background</title>
  <rect id="canvas_background" x="-1" y="-1" width="502" height="502" fill="none"/>
 </g>
 <g id="g16">
  <title id="title8">Layer 1</title>
  <path id="path4" d="m439.22 267.39c-128.73 2.1654-257.47-2.3981-386.19 2.2973-6.6309 8.1496-4.8847 36.515 3.7087 35.103 16.503 3.5415 33.255-1.5217 49.854 0.73344 118.79-0.79476 237.73 2.3183 356.44-1.7824 6.8674-9.1988 3.8958-38.33-4.7812-36.216-6.3202-1.1405-12.696 0.031783-19.031-0.13513z" fill="#888" stroke="null" />
  <path id="path3809" d="m460.59 286.19c-8.8098 0.60014-13.055 2.997-13.417 3.7935-0.36156 0.7965-9.6399 10.725-14.497 16.073-7.5126-6.8886-11.734-15.338-21.152-21.236-6.1598-1.8949-12.497 1.6037-14.148 5.3048-4.8446 5.3058-9.7278 10.597-14.547 15.913-7.4928-6.8608-11.72-15.354-21.122-21.217-6.1708-1.9015-12.486 1.5958-14.178 5.3048-4.8446 5.3058-9.7278 10.597-14.547 15.913-7.4928-6.8608-11.72-15.354-21.122-21.217-6.1707-1.9015-12.486 1.5958-14.178 5.3048-4.923 5.394-9.892 10.771-14.784 16.177-7.3219-6.9711-11.938-15.223-20.826-21.425-5.7184-1.8827-12.23 1.1199-13.788 4.7463-5.058 5.5406-10.114 11.082-15.173 16.622-7.6898-6.9128-11.806-15.571-21.448-21.5-6.1124-1.7438-11.97 1.8844-13.674 5.3994-4.908 5.3671-9.8195 10.733-14.725 16.101-7.6898-6.9128-11.806-15.571-21.448-21.5-6.1124-1.7446-11.97 1.8846-13.674 5.3994-4.9169 5.3801-9.8462 10.756-14.755 16.139-7.4426-6.9836-11.92-15.423-21.152-21.444-6.0131-1.8842-12.651 1.521-14.292 5.2365-4.8681 5.3341-9.7552 10.661-14.611 16-9.1726-9.2541 0.09843-1.9859-10.684-10.496-0.6364-2.2961-29.951-10.598-23.135-4.4948 6.8165 6.1035-0.99028 0.90452 5.1232 6.1455s11.102 14.416 19.968 19.916c8.55 3.6501 21.382 0.59762 24.596-5.5724 3.174-3.3879 6.2682-6.8114 9.365-10.232 5.892 6.0614 9.2201 14.939 21.24 17.163 10.192 1.7604 18.27-4.2257 21.832-9.5809 2.1216-1.745 3.3997-6.9375 8.4015-5.3562 5.3529 5.3365 8.6592 13.09 19.466 14.975 10.201 1.6822 18.366-4.1429 21.891-9.5243 2.3927-1.753 3.1337-6.9303 8.4015-5.7334 5.3888 4.7812 7.8346 11.526 16.566 14.522 9.5185 3.1649 20.672-1.7502 23.725-7.6949 3.3965-1.9926 3.1286-7.0743 8.7861-6.9405 4.3608 2.1754 5.2832 6.2929 8.7269 9.0528 4.0071 4.9419 13.629 8.4551 22.039 5.5448 9.1811-2.7014 11.134-9.4722 16.626-14.164 3.8366-1.8641 5.7829 2.0979 6.8752 3.6987 4.0209 5.2974 10.454 12.362 21.288 11.408 11.57-0.8833 15.706-8.6742 20.678-14.352 1.8828-2.1844 6.3752-0.84513 6.597 1.3579 4.3695 5.5703 10.146 13.431 21.714 13.032 11.411-0.41227 16.312-7.9133 20.649-13.485 0.91465-2.2791 6.0567-2.9416 7.0407-0.32062 4.3336 5.9933 10.468 14.417 22.69 13.787 10.045-0.51478 11.002-0.96313 18.871-11.91 7.8683-10.947 8.3748-17.052 8.3266-12.828s8.4025-8.4028-0.40734-7.8027z" fill="#0a0" stroke="null"/>
  <metadata id="svg_11">image/svg+xml</metadata>
  <g fill="#555" stroke="#969696" stroke-width="13.321">
   <path id="svg_9" d="m225.79 228.87 29.761-29.2 30.241 29.2-30.241 28.737-29.761-28.737z">
     <animate id="anim1" begin="0s;anim2.end" from="0.8" attributeName="opacity" to="0.1" dur="2s"/>
     <animate id="anim2" begin="anim1.end" from="0.1" attributeName="opacity" to="0.8" dur="1.5s"/>
   </path>  
   <path id="svg_14" d="m134.79 227.87 29.761-29.2 30.241 29.2-30.241 28.737-29.761-28.737z">
     <animate id="anim1" begin="0s;anim2.end" from="0.8" attributeName="opacity" to="0.1" dur="2s"/>
     <animate id="anim2" begin="anim1.end" from="0.1" attributeName="opacity" to="0.8" dur="1.5s"/>
   </path>
   <path id="svg_15" d="m314.79 226.87 29.761-29.2 30.241 29.2-30.241 28.737-29.761-28.737z">
     <animate id="anim1" begin="0s;anim2.end" from="0.8" attributeName="opacity" to="0.1" dur="2s"/>
     <animate id="anim2" begin="anim1.end" from="0.1" attributeName="opacity" to="0.8" dur="1.5s"/>
   </path>
  </g>
 </g>
</svg>
