<?xml version="1.0" encoding="UTF-8" standalone="no"?>
<svg id="svg2" xmlns:rdf="http://www.w3.org/1999/02/22-rdf-syntax-ns#" xmlns="http://www.w3.org/2000/svg" height="500" width="500" version="1.1" xmlns:cc="http://creativecommons.org/ns#" xmlns:dc="http://purl.org/dc/elements/1.1/">
 <metadata id="metadata7">image/svg+xml
  <rdf:RDF>
   <cc:Work rdf:about="">
    <dc:format>image/svg+xml</dc:format>
    <dc:type rdf:resource="http://purl.org/dc/dcmitype/StillImage"/>
    <dc:title/>
   </cc:Work>
  </rdf:RDF>
 </metadata>
 <g id="g6">
  <title id="title3">background</title>
  <rect id="canvas_background" x="-1" y="-1" width="582" height="402" fill="none"/>
 </g>
 <g id="g17">
  <title id="title8">Layer 1</title>
  <g id="g3892" transform="matrix(.76667 0 0 .76667 183.72 210.7)" fill="#969696">
   <path id="path3894" d="m267.15 92.085c10.21-15.985 43.17-37.055 43.17-37.055l1.1258-0.9699-1.1258-0.96412s-32.415-20.436-42.156-36.186c-3.716-6.0088-5.49-13.498-5.167-20.555 0.86691-18.943 18.849-53.673 18.849-53.673l0.4965-1.4058-1.4577-0.27134s-38.377-1.4982-54.727-10.285c-6.1563-3.3084-11.385-8.8425-14.6-15.048-8.7467-16.88-10.539-56.052-10.539-56.052l-0.26846-1.4606-1.3942 0.48784s-33.966 17.844-52.507 18.445c-7.3552 0.23855-15.053-1.9982-21.26-5.9522-16.477-10.497-38.175-44.474-38.175-44.474l-0.9699-1.1258-0.96412 1.1258s-21.638 34.079-38.181 44.477c-5.0801 3.1929-11.396 4.8726-17.392 4.6416-19.515-0.75177-55.278-19.418-55.278-19.418l-1.3971-0.49072-0.27423 1.4577s-1.6896 40.323-10.825 57.588c-2.6373 4.9842-6.9981 9.3096-11.988 11.936-16.824 8.8554-56.055 10.536-56.055 10.536l-1.4606 0.27422 0.49649 1.3971s17.839 33.911 18.414 52.423c0.21868 7.0413-1.9598 14.4-5.753 20.336-10.222 15.998-43.218 37.096-43.218 37.096l-1.1229 0.96701 1.1229 0.96413s32.4 20.421 42.127 36.166c3.7301 6.0379 5.5008 13.564 5.1728 20.654-0.87518 18.917-18.832 53.601-18.832 53.601l-0.49072 1.3971 1.4548 0.27422s38.272 1.4909 54.574 10.259c6.2397 3.3561 11.534 8.9725 14.791 15.264 8.7113 16.827 10.499 55.867 10.499 55.867l0.27712 1.4606 1.4-0.49938s33.812-17.784 52.27-18.359c7.1269-0.22189 14.575 1.9808 20.584 5.8194 15.954 10.192 36.995 43.094 36.995 43.094l0.9699 1.1287 0.96701-1.1287s20.382-32.329 36.091-42.043c6.0797-3.7597 13.657-5.5552 20.798-5.2276 18.889 0.86639 53.517 18.806 53.517 18.806l1.4116 0.49072 0.26268-1.4606s1.4982-38.247 10.256-54.542c3.3576-6.2472 8.9727-11.554 15.27-14.817 16.824-8.7166 55.867-10.496 55.867-10.496l1.4577-0.28289-0.48784-1.3971s-17.808-33.857-18.39-52.34c-0.22333-7.0805 1.9556-14.483 5.7674-20.454l0.00187-3.9e-4z" fill="#969696"/>
  </g>
  <g id="g4136" transform="matrix(.69565 0 0 .69565 76.089 76.089)" stroke-width="10">
   <g id="g3" fill="#ffc800" stroke="#ffa900">
    <path id="path5" d="m430.7 290.82c10.205-15.985 43.172-37.055 43.172-37.055l1.1258-0.9699-1.1258-0.96412s-32.415-20.436-42.156-36.186c-3.716-6.0088-5.49-13.498-5.167-20.555 0.86691-18.943 18.849-53.673 18.849-53.673l0.4965-1.4058-1.4577-0.27134s-38.377-1.4982-54.727-10.285c-6.1563-3.3084-11.385-8.8425-14.6-15.048-8.7467-16.88-10.539-56.052-10.539-56.052l-0.26846-1.4606-1.3942 0.48784s-33.966 17.844-52.507 18.445c-7.3552 0.23855-15.053-1.9982-21.26-5.9522-16.477-10.497-38.175-44.474-38.175-44.474l-0.9699-1.1258-0.96412 1.1258s-21.638 34.079-38.181 44.477c-5.0801 3.1929-11.396 4.8726-17.392 4.6416-19.515-0.75177-55.278-19.418-55.278-19.418l-1.3971-0.49072-0.27423 1.4577s-1.6896 40.323-10.825 57.588c-2.6373 4.9842-6.9981 9.3096-11.988 11.936-16.824 8.8554-56.055 10.536-56.055 10.536l-1.4606 0.27422 0.49649 1.3971s17.839 33.911 18.414 52.423c0.21868 7.0413-1.9598 14.4-5.753 20.336-10.222 15.998-43.218 37.096-43.218 37.096l-1.1229 0.96701 1.1229 0.96413s32.4 20.421 42.127 36.166c3.7301 6.0379 5.5008 13.564 5.1728 20.654-0.87518 18.917-18.832 53.601-18.832 53.601l-0.49072 1.3971 1.4548 0.27422s38.272 1.4909 54.574 10.259c6.2397 3.3561 11.534 8.9725 14.791 15.264 8.7113 16.827 10.499 55.867 10.499 55.867l0.27712 1.4606 1.4-0.49938s33.812-17.784 52.27-18.359c7.1269-0.22189 14.575 1.9808 20.584 5.8194 15.954 10.192 36.995 43.094 36.995 43.094l0.9699 1.1287 0.96701-1.1287s20.382-32.329 36.091-42.043c6.0797-3.7597 13.657-5.5552 20.798-5.2276 18.889 0.86639 53.517 18.806 53.517 18.806l1.4116 0.49072 0.26268-1.4606s1.4982-38.247 10.256-54.542c3.3576-6.2472 8.9727-11.554 15.27-14.817 16.824-8.7166 55.867-10.496 55.867-10.496l1.4577-0.28289-0.48784-1.3971s-17.808-33.857-18.39-52.34c-0.22333-7.0805 1.9556-14.483 5.7674-20.454l-1.3e-4 -3.9e-4z" fill="#ffc800" stroke="#ffa900" stroke-width="10"/>
   </g>
   <path id="path4808" d="m270.19 115.04c-74.39-11.71-144.19 39.75-155.39 114.64-11.72 74.39 39.74 144.19 114.63 155.39 74.9 11.21 144.19-39.74 155.9-114.63 11.21-74.39-40.25-144.19-115.14-155.4z" fill="#ff9d00" stroke="#ff9b00"/>
  </g>
  <path id="path4915" d="m189.63 51.47c-8.1491 0-14.749 10.252-14.749 22.885 0 12.634 6.5996 22.885 14.749 22.885h88.5c8.1424 0 14.749-10.252 14.749-22.885 0-12.634-6.6076-22.885-14.749-22.885h-88.5zm-88.5 68.66c-8.1491 0-14.749 10.252-14.749 22.885 0 12.634 6.6009 22.885 14.749 22.885h177c8.1424 0 14.749-10.252 14.749-22.885 0-12.634-6.6076-22.885-14.749-22.885h-177zm228.63 0c-8.1491 0-14.749 10.252-14.749 22.885 0 12.634 6.6009 22.885 14.749 22.885h59c8.1424 0 14.749-10.252 14.749-22.885 0-12.634-6.6076-22.885-14.749-22.885h-59zm-272.88 68.66c-8.1491 0-14.749 10.252-14.749 22.885 0 12.634 6.6009 22.885 14.749 22.885h177c8.1424 0 14.749-10.252 14.749-22.885 0-12.634-6.6076-22.885-14.749-22.885h-177zm221.25 0c-8.1491 0-14.749 10.252-14.749 22.885 0 12.634 6.6009 22.885 14.749 22.885h154.88c8.1424 0 14.749-10.252 14.749-22.885 0-12.634-6.6076-22.885-14.749-22.885h-154.88zm-243.37 68.647c-8.1491 0-14.749 10.252-14.749 22.885 0 12.634 6.6009 22.885 14.749 22.885h442.51c8.1424 0 14.749-10.252 14.749-22.885 0-12.634-6.6076-22.885-14.749-22.885h-442.51zm22.125 68.66c-8.1491 0-14.749 10.252-14.749 22.885 0 12.634 6.6009 22.885 14.749 22.885h420.37c8.1424 0 14.749-10.252 14.749-22.885 0-12.634-6.6076-22.885-14.749-22.885h-420.37zm44.251 68.66c-8.1491 0-14.749 10.252-14.749 22.885 0 12.634 6.6009 22.885 14.749 22.885h88.5c8.1424 0 14.749-10.252 14.749-22.885 0-12.634-6.6089-22.885-14.749-22.885h-88.5zm132.75 0c-8.1491 0-14.749 10.252-14.749 22.885 0 12.634 6.6009 22.885 14.749 22.885h199.12c8.1424 0 14.749-10.252 14.749-22.885 0-12.634-6.6089-22.885-14.749-22.885h-199.12z" fill="#ccc" opacity=".8" stroke="null">
   <animate id="anim1" begin="0s;anim2.end" from="#cccccc" attributeName="fill" to="#efefef" dur="1.5s"/>
   <animate id="anim2" begin="anim1.end" from="#efefef" attributeName="fill" to="#cccccc" dur="1.5s"/>
 </path>
 </g>
</svg>
