<?xml version="1.0" encoding="UTF-8" standalone="no"?>
<svg id="svg2" xmlns:rdf="http://www.w3.org/1999/02/22-rdf-syntax-ns#" xmlns="http://www.w3.org/2000/svg" height="500" width="500" version="1.1" xmlns:cc="http://creativecommons.org/ns#" xmlns:xlink="http://www.w3.org/1999/xlink" xmlns:dc="http://purl.org/dc/elements/1.1/">
 <metadata id="metadata7">
  <rdf:RDF>
   <cc:Work rdf:about="">
    <dc:format>image/svg+xml</dc:format>
    <dc:type rdf:resource="http://purl.org/dc/dcmitype/StillImage"/>
    <dc:title/>
   </cc:Work>
  </rdf:RDF>
 </metadata>
 <g id="g3892" style="fill:#969696;" transform="matrix(0.76666663,0,0,0.76666663,183.72336,210.70157)">
  <path id="path3894" style="fill:#969696;" d="M267.15,92.085c10.21-15.985,43.17-37.055,43.17-37.055l1.1258-0.9699-1.1258-0.96412s-32.415-20.436-42.156-36.186c-3.716-6.0088-5.49-13.498-5.167-20.555,0.86691-18.943,18.849-53.673,18.849-53.673l0.4965-1.4058-1.4577-0.27134s-38.377-1.4982-54.727-10.285c-6.1563-3.3084-11.385-8.8425-14.6-15.048-8.7467-16.88-10.539-56.052-10.539-56.052l-0.26846-1.4606-1.3942,0.48784s-33.966,17.844-52.507,18.445c-7.3552,0.23855-15.053-1.9982-21.26-5.9522-16.477-10.497-38.175-44.474-38.175-44.474l-0.9699-1.1258-0.96412,1.1258s-21.638,34.079-38.181,44.477c-5.0801,3.1929-11.396,4.8726-17.392,4.6416-19.515-0.75177-55.278-19.418-55.278-19.418l-1.3971-0.49072-0.27423,1.4577s-1.6896,40.323-10.825,57.588c-2.6373,4.9842-6.9981,9.3096-11.988,11.936-16.824,8.8554-56.055,10.536-56.055,10.536l-1.4606,0.27422,0.49649,1.3971s17.839,33.911,18.414,52.423c0.21868,7.0413-1.9598,14.4-5.753,20.336-10.222,15.998-43.218,37.096-43.218,37.096l-1.1229,0.96701,1.1229,0.96413s32.4,20.421,42.127,36.166c3.7301,6.0379,5.5008,13.564,5.1728,20.654-0.87518,18.917-18.832,53.601-18.832,53.601l-0.49072,1.3971,1.4548,0.27422s38.272,1.4909,54.574,10.259c6.2397,3.3561,11.534,8.9725,14.791,15.264,8.7113,16.827,10.499,55.867,10.499,55.867l0.27712,1.4606,1.4-0.49938s33.812-17.784,52.27-18.359c7.1269-0.22189,14.575,1.9808,20.584,5.8194,15.954,10.192,36.995,43.094,36.995,43.094l0.9699,1.1287,0.96701-1.1287s20.382-32.329,36.091-42.043c6.0797-3.7597,13.657-5.5552,20.798-5.2276,18.889,0.86639,53.517,18.806,53.517,18.806l1.4116,0.49072,0.26268-1.4606s1.4982-38.247,10.256-54.542c3.3576-6.2472,8.9727-11.554,15.27-14.817,16.824-8.7166,55.867-10.496,55.867-10.496l1.4577-0.28289-0.48784-1.3971s-17.808-33.857-18.39-52.34c-0.22333-7.0805,1.9556-14.483,5.7674-20.454z"/>
 </g>
 <g id="g4854" transform="matrix(0.69565217,0,0,0.69565217,76.088606,76.088603)">
  <g id="g3" style="stroke-miterlimit:4;stroke:#ffa900;stroke-width:10;stroke-dasharray:none;fill:#ffc800;" transform="translate(163.551,198.73909)">
   <path id="path5" style="stroke-miterlimit:4;stroke:#ffa900;stroke-width:10;stroke-dasharray:none;fill:#ffc800;" d="m267.15,92.085c10.205-15.985,43.172-37.055,43.172-37.055l1.1258-0.9699-1.1258-0.96412s-32.415-20.436-42.156-36.186c-3.716-6.0088-5.49-13.498-5.167-20.555,0.86691-18.943,18.849-53.673,18.849-53.673l0.4965-1.4058-1.4577-0.27134s-38.377-1.4982-54.727-10.285c-6.1563-3.3084-11.385-8.8425-14.6-15.048-8.7467-16.88-10.539-56.052-10.539-56.052l-0.26846-1.4606-1.3942,0.48784s-33.966,17.844-52.507,18.445c-7.3552,0.23855-15.053-1.9982-21.26-5.9522-16.477-10.497-38.175-44.474-38.175-44.474l-0.9699-1.1258-0.96412,1.1258s-21.638,34.079-38.181,44.477c-5.0801,3.1929-11.396,4.8726-17.392,4.6416-19.515-0.75177-55.278-19.418-55.278-19.418l-1.3971-0.49072-0.27423,1.4577s-1.6896,40.323-10.825,57.588c-2.6373,4.9842-6.9981,9.3096-11.988,11.936-16.824,8.8554-56.055,10.536-56.055,10.536l-1.4606,0.27422,0.49649,1.3971s17.839,33.911,18.414,52.423c0.21868,7.0413-1.9598,14.4-5.753,20.336-10.222,15.998-43.218,37.096-43.218,37.096l-1.1229,0.96701,1.1229,0.96413s32.4,20.421,42.127,36.166c3.7301,6.0379,5.5008,13.564,5.1728,20.654-0.87518,18.917-18.832,53.601-18.832,53.601l-0.49072,1.3971,1.4548,0.27422s38.272,1.4909,54.574,10.259c6.2397,3.3561,11.534,8.9725,14.791,15.264,8.7113,16.827,10.499,55.867,10.499,55.867l0.27712,1.4606,1.4-0.49938s33.812-17.784,52.27-18.359c7.1269-0.22189,14.575,1.9808,20.584,5.8194,15.954,10.192,36.995,43.094,36.995,43.094l0.9699,1.1287,0.96701-1.1287s20.382-32.329,36.091-42.043c6.0797-3.7597,13.657-5.5552,20.798-5.2276,18.889,0.86639,53.517,18.806,53.517,18.806l1.4116,0.49072,0.26268-1.4606s1.4982-38.247,10.256-54.542c3.3576-6.2472,8.9727-11.554,15.27-14.817,16.824-8.7166,55.867-10.496,55.867-10.496l1.4577-0.28289-0.48784-1.3971s-17.808-33.857-18.39-52.34c-0.22333-7.0805,1.9556-14.483,5.7674-20.454z"/>
  </g>
  <path id="path4808" style="stroke-miterlimit:4;stroke:#ff9b00;stroke-width:10;stroke-dasharray:none;fill:#ff9d00;" d="M270.19,115.04c-74.39-11.71-144.19,39.75-155.39,114.64-11.72,74.39,39.74,144.19,114.63,155.39,74.9,11.21,144.19-39.74,155.9-114.63,11.21-74.39-40.25-144.19-115.14-155.4z" horiz-adv-x="1000" unicode="" glyph-name="icon"/>
 </g>
 <path id="path4-4" style="opacity:0.9;stroke:#969696;stroke-dasharray:none;stroke-miterlimit:4;stroke-width:15;fill:#dddddd;" d="m323.29,346.86c-3.8841-6.0795-8.6971-11.484-14.439-16.212-20.068-15.835-41.528-17.91-59.022-16.613-9.5886-37.605-33.92-59.069-70.168-59.442-10.47,0-20.434,2.1109-29.891,6.3328-9.4571,4.2219-17.648,9.6259-24.571,16.212-6.924,6.5862-12.412,14.861-16.465,24.825-4.5632,12.77-5.6798,19.704-5.8263,32.889-13.042-3.2963-30.81-4.1311-41.797,0.25331-13.172,5.7418-22.46,15.537-27.865,29.384-3.3775,9.2882-4.3908,18.407-3.0398,27.358,1.351,8.9504,4.9818,17.141,10.893,24.571,5.9107,7.4305,13.341,12.835,22.292,16.212,6.2484,2.3643,12.412,3.5464,18.492,3.5464h181.88c14.523,0,27.865,2.2776,40.024-5.9974,29.593-20.877,35.386-57.655,19.505-83.319z" horiz-adv-x="1205.1" unicode="" glyph-name="cloud-6">
  <animateTransform id="anim1" begin="0s;anim2.end" from="0 0" attributeName="transform" to="80 0" attributeType="xml" dur="1.5s" type="translate"/>
  <animateTransform id="anim2" begin="anim1.end" from="80 0" attributeName="transform" to="0 0" attributeType="xml" dur="1.5s" type="translate"/>
 </path>
 <path id="path4895" style="opacity:0.9;stroke:#969696;stroke-dasharray:none;stroke-miterlimit:4;stroke-width:15;fill:#ffffff;" d="m466.47,158.69c-3.057-4.7849-6.8451-9.0382-11.364-12.76-15.8-12.461-32.69-14.094-46.46-13.073-7.54-29.598-26.69-46.491-55.22-46.785-8.2408,0-16.083,1.6614-23.526,4.9843-7.4433,3.3229-13.89,7.5762-19.339,12.76-5.4496,5.1837-9.7693,11.697-12.959,19.539-3.5915,10.051-4.4704,15.508-4.5856,25.885-10.265-2.5944-24.249-3.2514-32.896,0.19937-10.367,4.5191-17.678,12.228-21.931,23.127-2.6583,7.3103-3.4558,14.488-2.3924,21.532,1.0633,7.0445,3.921,13.491,8.573,19.339,4.652,5.8483,10.5,10.102,17.545,12.76,4.9179,1.8608,9.7692,2.7912,14.554,2.7912h143.15c11.431,0,21.931,1.7926,31.501-4.7203,23.291-16.431,27.85-45.377,15.352-65.577z" horiz-adv-x="1205.1" unicode="" glyph-name="cloud-6">
  <animateTransform id="anim3" begin="0s;anim4.end" from="0 0" attributeName="transform" to="-80 0" attributeType="xml" dur="1.5s" type="translate"/>
  <animateTransform id="anim4" begin="anim3.end" from="-80 0" attributeName="transform" to="0 0" attributeType="xml" dur="1.5s" type="translate"/>
 </path>
</svg>
