<?xml version="1.0" encoding="UTF-8" standalone="no"?>
<svg id="svg2" xmlns:rdf="http://www.w3.org/1999/02/22-rdf-syntax-ns#" xmlns="http://www.w3.org/2000/svg" height="500" width="500" version="1.1" xmlns:cc="http://creativecommons.org/ns#" xmlns:xlink="http://www.w3.org/1999/xlink" xmlns:dc="http://purl.org/dc/elements/1.1/">
 <metadata id="metadata7">image/svg+xml
  <rdf:RDF>
   <cc:Work rdf:about="">
    <dc:format>image/svg+xml</dc:format>
    <dc:type rdf:resource="http://purl.org/dc/dcmitype/StillImage"/>
    <dc:title/>
   </cc:Work>
  </rdf:RDF>
 </metadata>
 <g id="g6">
  <title id="title3">background</title>
  <rect id="canvas_background" x="-1" y="-1" width="582" height="402" fill="none"/>
 </g>
 <g id="g19">
  <title id="title8">Layer 1</title>
  <g id="g3892" transform="matrix(.76667 0 0 .76667 183.72 210.7)" fill="#969696">
   <path id="path3894" d="m267.15 92.085c10.205-15.985 43.172-37.055 43.172-37.055l1.1258-0.9699-1.1258-0.96412s-32.415-20.436-42.156-36.186c-3.716-6.0088-5.49-13.498-5.167-20.555 0.86691-18.943 18.849-53.673 18.849-53.673l0.4965-1.4058-1.4577-0.27134s-38.377-1.4982-54.727-10.285c-6.1563-3.3084-11.385-8.8425-14.6-15.048-8.7467-16.88-10.539-56.052-10.539-56.052l-0.26846-1.4606-1.3942 0.48784s-33.966 17.844-52.507 18.445c-7.3552 0.23855-15.053-1.9982-21.26-5.9522-16.477-10.497-38.175-44.474-38.175-44.474l-0.9699-1.1258-0.96412 1.1258s-21.638 34.079-38.181 44.477c-5.0801 3.1929-11.396 4.8726-17.392 4.6416-19.515-0.75177-55.278-19.418-55.278-19.418l-1.3971-0.49072-0.27423 1.4577s-1.6896 40.323-10.825 57.588c-2.6373 4.9842-6.9981 9.3096-11.988 11.936-16.824 8.8554-56.055 10.536-56.055 10.536l-1.4606 0.27422 0.49649 1.3971s17.839 33.911 18.414 52.423c0.21868 7.0413-1.9598 14.4-5.753 20.336-10.222 15.998-43.218 37.096-43.218 37.096l-1.1229 0.96701 1.1229 0.96413s32.4 20.421 42.127 36.166c3.7301 6.0379 5.5008 13.564 5.1728 20.654-0.87518 18.917-18.832 53.601-18.832 53.601l-0.49072 1.3971 1.4548 0.27422s38.272 1.4909 54.574 10.259c6.2397 3.3561 11.534 8.9725 14.791 15.264 8.7113 16.827 10.499 55.867 10.499 55.867l0.27712 1.4606 1.4-0.49938s33.812-17.784 52.27-18.359c7.1269-0.22189 14.575 1.9808 20.584 5.8194 15.954 10.192 36.995 43.094 36.995 43.094l0.9699 1.1287 0.96701-1.1287s20.382-32.329 36.091-42.043c6.0797-3.7597 13.657-5.5552 20.798-5.2276 18.889 0.86639 53.517 18.806 53.517 18.806l1.4116 0.49072 0.26268-1.4606s1.4982-38.247 10.256-54.542c3.3576-6.2472 8.9727-11.554 15.27-14.817 16.824-8.7166 55.867-10.496 55.867-10.496l1.4577-0.28289-0.48784-1.3971s-17.808-33.857-18.39-52.34c-0.22333-7.0805 1.9556-14.483 5.7674-20.454l-1.3e-4 -3.9e-4z" fill="#969696"/>
  </g>
  <g>
   <g id="g3" transform="matrix(.69565 0 0 .69565 189.86 214.34)" fill="#ffc800" stroke="#ffa900" stroke-width="10">
    <path id="path5" d="m267.15 92.085c10.205-15.985 43.172-37.055 43.172-37.055l1.1258-0.9699-1.1258-0.96412s-32.415-20.436-42.156-36.186c-3.716-6.0088-5.49-13.498-5.167-20.555 0.86691-18.943 18.849-53.673 18.849-53.673l0.4965-1.4058-1.4577-0.27134s-38.377-1.4982-54.727-10.285c-6.1563-3.3084-11.385-8.8425-14.6-15.048-8.7467-16.88-10.539-56.052-10.539-56.052l-0.26846-1.4606-1.3942 0.48784s-33.966 17.844-52.507 18.445c-7.3552 0.23855-15.053-1.9982-21.26-5.9522-16.477-10.497-38.175-44.474-38.175-44.474l-0.9699-1.1258-0.96412 1.1258s-21.638 34.079-38.181 44.477c-5.0801 3.1929-11.396 4.8726-17.392 4.6416-19.515-0.75177-55.278-19.418-55.278-19.418l-1.3971-0.49072-0.27423 1.4577s-1.6896 40.323-10.825 57.588c-2.6373 4.9842-6.9981 9.3096-11.988 11.936-16.824 8.8554-56.055 10.536-56.055 10.536l-1.4606 0.27422 0.49649 1.3971s17.839 33.911 18.414 52.423c0.21868 7.0413-1.9598 14.4-5.753 20.336-10.222 15.998-43.218 37.096-43.218 37.096l-1.1229 0.96701 1.1229 0.96413s32.4 20.421 42.127 36.166c3.7301 6.0379 5.5008 13.564 5.1728 20.654-0.87518 18.917-18.832 53.601-18.832 53.601l-0.49072 1.3971 1.4548 0.27422s38.272 1.4909 54.574 10.259c6.2397 3.3561 11.534 8.9725 14.791 15.264 8.7113 16.827 10.499 55.867 10.499 55.867l0.27712 1.4606 1.4-0.49938s33.812-17.784 52.27-18.359c7.1269-0.22189 14.575 1.9808 20.584 5.8194 15.954 10.192 36.995 43.094 36.995 43.094l0.9699 1.1287 0.96701-1.1287s20.382-32.329 36.091-42.043c6.0797-3.7597 13.657-5.5552 20.798-5.2276 18.889 0.86639 53.517 18.806 53.517 18.806l1.4116 0.49072 0.26268-1.4606s1.4982-38.247 10.256-54.542c3.3576-6.2472 8.9727-11.554 15.27-14.817 16.824-8.7166 55.867-10.496 55.867-10.496l1.4577-0.28289-0.48784-1.3971s-17.808-33.857-18.39-52.34c-0.22333-7.0805 1.9556-14.483 5.7674-20.454l-1.3e-4 -3.9e-4z" fill="#ffc800" stroke="#ffa900" stroke-width="10"/>
   </g>
   <path id="path4808" d="m264.05 156.12c-51.75-8.1461-100.31 27.652-108.1 79.75-8.153 51.75 27.645 100.31 79.743 108.1 52.104 7.7983 100.31-27.645 108.45-79.743 7.7983-51.75-28-100.31-80.097-108.1z" fill="#ff9d00" stroke="#ff9b00" stroke-width="6.9565"/>
   <path id="path4895" d="m464.77 169.18c-3.6224-5.9549-8.111-11.248-13.466-15.88-18.722-15.508-38.736-17.54-55.052-16.269-8.9344-36.835-31.626-57.859-65.432-58.224-9.7648 0-19.057 2.0676-27.877 6.203-8.8198 4.1354-16.459 9.4287-22.915 15.88-6.4574 6.4512-11.576 14.557-15.356 24.316-4.2557 12.509-5.2971 19.3-5.4336 32.214-12.163-3.2288-28.734-4.0464-38.98 0.24812-12.284 5.6241-20.947 15.218-25.987 28.782-3.1499 9.0977-4.0949 18.03-2.8348 26.797 1.2599 8.767 4.6461 16.79 10.158 24.068 5.5123 7.2783 12.442 12.572 20.79 15.88 5.8274 2.3158 11.576 3.4737 17.246 3.4737h169.62c13.545 0 25.987 2.2309 37.327-5.8745 27.598-20.449 33-56.472 18.191-81.611l-0.00237-0.001954z" fill="#fff" opacity=".9" stroke="#969696" stroke-width="15">
   <animateTransform id="anim3" begin="0s;anim4.end" from="0 0" attributeName="transform" to="-40 0" attributeType="xml" dur="1.5s" type="translate"/>
   <animateTransform id="anim4" begin="anim3.end" from="-40 0" attributeName="transform" to="0 0" attributeType="xml" dur="1.5s" type="translate"/>
  </path>
  </g>
  <metadata id="svg_7" transform="scale(.11111)">image/svg+xml</metadata>
  <g id="svg_9" stroke="null">
   <path id="svg_6" d="m432.32 302.29c-4.9112-7.7287-10.997-14.598-18.257-20.609-25.375-20.13-52.51-22.768-74.63-21.12-12.124-47.806-42.889-75.09-88.723-75.566-13.239 0-25.838 2.6836-37.795 8.0506-11.958 5.3671-22.315 12.236-31.069 20.609-8.7549 8.3726-15.695 18.892-20.82 31.558-5.77 16.234-7.1819 25.048-7.3669 41.81-16.491-4.1904-38.957-5.2517-52.85 0.32202-16.656 7.2992-28.4 19.75-35.233 37.355-4.2707 11.808-5.5519 23.401-3.8436 34.779s6.2992 21.791 13.772 31.236c7.4737 9.4461 16.869 16.316 28.186 20.609 7.9007 3.0056 15.695 4.5084 23.382 4.5084h229.98c18.364 0 35.233 2.8953 50.607-7.6242 37.418-26.54 44.743-73.293 24.663-105.92l4.22e-4 0.001613z" fill="#eee" stroke="#969696" stroke-width="15">
    <animateTransform id="anim1" begin="0s;anim2.end" from="0 0" attributeName="transform" to="40 0" attributeType="xml" dur="1.5s" type="translate"/>
    <animateTransform id="anim2" begin="anim1.end" from="40 0" attributeName="transform" to="0 0" attributeType="xml" dur="1.5s" type="translate"/>
   </path>
  </g>
 </g>
</svg>
