<?xml version="1.0" encoding="UTF-8" standalone="no"?>
<svg id="svg2" xmlns:rdf="http://www.w3.org/1999/02/22-rdf-syntax-ns#" xmlns="http://www.w3.org/2000/svg" height="500" width="500" version="1.1" xmlns:cc="http://creativecommons.org/ns#" xmlns:dc="http://purl.org/dc/elements/1.1/">
 <metadata id="metadata7">
  <rdf:RDF>
   <cc:Work rdf:about="">
    <dc:format>image/svg+xml</dc:format>
    <dc:type rdf:resource="http://purl.org/dc/dcmitype/StillImage"/>
    <dc:title/>
   </cc:Work>
  </rdf:RDF>
 </metadata>
 <path id="path4-4" style="stroke:#969696;stroke-miterlimit:4;stroke-dasharray:none;stroke-width:15;fill:#eeeeee;" d="m421.37,214.37c-4.6703-7.3101-10.457-13.808-17.361-19.494-24.13-19.04-49.934-21.536-70.969-19.976-11.529-45.217-40.785-71.025-84.371-71.474-12.59,0-24.57,2.5382-35.941,7.6147-11.371,5.0764-21.22,11.574-29.545,19.494-8.3254,7.9193-14.925,17.869-19.798,29.85-5.4869,15.355-6.8295,23.692-7.0056,39.545-15.682-3.9635-37.046-4.9673-50.257,0.30459-15.839,6.904-27.007,18.681-33.505,35.332-4.0611,11.168-5.2795,22.133-3.655,32.895s5.9902,20.61,13.097,29.545c7.1071,8.9346,16.042,15.432,26.804,19.494,7.5132,2.8428,14.925,4.2642,22.235,4.2642h218.69c17.463,0,33.505,2.7386,48.125-7.2113,35.583-25.102,42.548-69.324,23.453-100.18z" horiz-adv-x="1205.1" unicode="" glyph-name="cloud-6"/>
 <path id="path3795" style="stroke:#969696;stroke-miterlimit:4;stroke-dasharray:none;stroke-width:11.99699974;fill:#ffffff;" d="m226.85,320.42q2.9665,1.5974,3.7652,4.9062,0.79868,3.3088-0.79868,6.2754l-3.9934,6.9599q-1.7115,2.9665-5.0203,3.7652-3.3088,0.79869-6.1612-0.79868l-17-9.6983v19.511q0,3.3088-2.396,5.7049-2.396,2.396-5.7049,2.5101h-8.1009q-3.3088,0-5.819-2.5101-2.5101-2.5101-2.396-5.7049v-19.511l-16.886,9.6983q-2.9665,1.7115-6.2754,0.79868-3.3088-0.91277-4.9062-3.7652l-4.1075-6.9599q-1.5974-2.9665-0.79868-6.2754,0.79868-3.3088,3.8793-4.9062l16.886-9.8124-16.886-9.8124q-2.9665-1.5974-3.8793-4.9062-0.91278-3.3088,0.79868-6.2754l4.1075-6.9599q1.7115-2.9665,4.9062-3.7652,3.1947-0.79868,6.2754,0.79868l16.886,9.6983v-19.511q0-3.3088,2.396-5.7049,2.396-2.396,5.819-2.5101h8.1009q3.3088,0,5.7049,2.5101,2.396,2.5101,2.396,5.7049v19.511l17-9.6983q2.9665-1.7115,6.1612-0.79868,3.1947,0.91278,5.0203,3.7652l3.9934,6.9599q1.7115,2.9665,0.79868,6.2754-0.91277,3.3088-3.7652,4.9062l-16.886,9.8124z" horiz-adv-x="928.6" unicode="" glyph-name="asterisk">
  <animateTransform id="anim1" from="0 -30" repeatCount="indefinite" attributeName="transform" to="0 80" attributeType="xml" dur="1.5s" type="translate"/>
  <animate id="anim2" from="0" repeatCount="indefinite" attributeName="opacity" to="1" dur="1.5s"/>
 </path>
 <path id="path4" style="stroke:#969696;stroke-miterlimit:4;stroke-dasharray:none;stroke-width:11.99699974;fill:#ffffff;" d="m369.75,372.68q2.9665,1.5974,3.7652,4.9062,0.79868,3.3088-0.79868,6.2754l-3.9934,6.9599q-1.7115,2.9665-5.0203,3.7652-3.3088,0.79869-6.1612-0.79868l-17-9.6983v19.511q0,3.3088-2.396,5.7049-2.396,2.396-5.7049,2.5101h-8.1009q-3.3088,0-5.819-2.5101-2.5101-2.5101-2.396-5.7049v-19.511l-16.886,9.6983q-2.9665,1.7115-6.2754,0.79868-3.3088-0.91277-4.9062-3.7652l-4.1075-6.9599q-1.5974-2.9665-0.79868-6.2754,0.79868-3.3088,3.8793-4.9062l16.886-9.8124-16.886-9.8124q-2.9665-1.5974-3.8793-4.9062-0.91278-3.3088,0.79868-6.2754l4.1075-6.9599q1.7115-2.9665,4.9062-3.7652,3.1947-0.79868,6.2754,0.79868l16.886,9.6983v-19.511q0-3.3088,2.396-5.7049,2.396-2.396,5.819-2.5101h8.1009q3.3088,0,5.7049,2.5101,2.396,2.5101,2.396,5.7049v19.511l17-9.6983q2.9665-1.7115,6.1612-0.79868,3.1947,0.91278,5.0203,3.7652l3.9934,6.9599q1.7115,2.9665,0.79868,6.2754-0.91277,3.3088-3.7652,4.9062l-16.886,9.8124z" horiz-adv-x="928.6" unicode="" glyph-name="asterisk">
  <animateTransform id="anim3" from="0 -80" repeatCount="indefinite" attributeName="transform" to="0 15" attributeType="xml" dur="2.0s" type="translate"/>
  <animate id="anim4" from="0" repeatCount="indefinite" attributeName="opacity" to="1" dur="2.0s"/>
 </path>
</svg>
