<?xml version="1.0" encoding="UTF-8" standalone="no"?>
<svg id="svg2" xmlns:rdf="http://www.w3.org/1999/02/22-rdf-syntax-ns#" xmlns="http://www.w3.org/2000/svg" height="500" width="500" version="1.1" xmlns:cc="http://creativecommons.org/ns#" xmlns:dc="http://purl.org/dc/elements/1.1/">
 <metadata id="metadata7">
  <rdf:RDF>
   <cc:Work rdf:about="">
    <dc:format>image/svg+xml</dc:format>
    <dc:type rdf:resource="http://purl.org/dc/dcmitype/StillImage"/>
    <dc:title/>
   </cc:Work>
  </rdf:RDF>
 </metadata>
 <g id="g5712" style="fill:#969696;" transform="matrix(0.67777553,0,0,0.67777553,259.27994,118.40085)">
  <path id="path5714" style="fill:#969696;" d="M267.15,92.085c10.21-15.985,43.17-37.055,43.17-37.055l1.1258-0.9699-1.1258-0.96412s-32.415-20.436-42.156-36.186c-3.716-6.0088-5.49-13.498-5.167-20.555,0.86691-18.943,18.849-53.673,18.849-53.673l0.4965-1.4058-1.4577-0.27134s-38.377-1.4982-54.727-10.285c-6.1563-3.3084-11.385-8.8425-14.6-15.048-8.7467-16.88-10.539-56.052-10.539-56.052l-0.26846-1.4606-1.3942,0.48784s-33.966,17.844-52.507,18.445c-7.3552,0.23855-15.053-1.9982-21.26-5.9522-16.477-10.497-38.175-44.474-38.175-44.474l-0.9699-1.1258-0.96412,1.1258s-21.638,34.079-38.181,44.477c-5.0801,3.1929-11.396,4.8726-17.392,4.6416-19.515-0.75177-55.278-19.418-55.278-19.418l-1.3971-0.49072-0.27423,1.4577s-1.6896,40.323-10.825,57.588c-2.6373,4.9842-6.9981,9.3096-11.988,11.936-16.824,8.8554-56.055,10.536-56.055,10.536l-1.4606,0.27422,0.49649,1.3971s17.839,33.911,18.414,52.423c0.21868,7.0413-1.9598,14.4-5.753,20.336-10.222,15.998-43.218,37.096-43.218,37.096l-1.1229,0.96701,1.1229,0.96413s32.4,20.421,42.127,36.166c3.7301,6.0379,5.5008,13.564,5.1728,20.654-0.87518,18.917-18.832,53.601-18.832,53.601l-0.49072,1.3971,1.4548,0.27422s38.272,1.4909,54.574,10.259c6.2397,3.3561,11.534,8.9725,14.791,15.264,8.7113,16.827,10.499,55.867,10.499,55.867l0.27712,1.4606,1.4-0.49938s33.812-17.784,52.27-18.359c7.1269-0.22189,14.575,1.9808,20.584,5.8194,15.954,10.192,36.995,43.094,36.995,43.094l0.9699,1.1287,0.96701-1.1287s20.382-32.329,36.091-42.043c6.0797-3.7597,13.657-5.5552,20.798-5.2276,18.889,0.86639,53.517,18.806,53.517,18.806l1.4116,0.49072,0.26268-1.4606s1.4982-38.247,10.256-54.542c3.3576-6.2472,8.9727-11.554,15.27-14.817,16.824-8.7166,55.867-10.496,55.867-10.496l1.4577-0.28289-0.48784-1.3971s-17.808-33.857-18.39-52.34c-0.22333-7.0805,1.9556-14.483,5.7674-20.454z"/>
 </g>
 <g id="g4854" transform="matrix(0.61110825,0,0,0.61110825,165.09581,0.367041)">
  <g id="g3" style="stroke-dasharray:none;stroke:#ffa900;stroke-width:10;stroke-miterlimit:4;fill:#ffc800;" transform="translate(163.551,198.73909)">
   <path id="path5" style="stroke-dasharray:none;stroke:#ffa900;stroke-width:10;stroke-miterlimit:4;fill:#ffc800;" d="M267.15,92.085c10.21-15.985,43.17-37.055,43.17-37.055l1.1258-0.9699-1.1258-0.96412s-32.415-20.436-42.156-36.186c-3.716-6.0088-5.49-13.498-5.167-20.555,0.86691-18.943,18.849-53.673,18.849-53.673l0.4965-1.4058-1.4577-0.27134s-38.377-1.4982-54.727-10.285c-6.1563-3.3084-11.385-8.8425-14.6-15.048-8.7467-16.88-10.539-56.052-10.539-56.052l-0.26846-1.4606-1.3942,0.48784s-33.966,17.844-52.507,18.445c-7.3552,0.23855-15.053-1.9982-21.26-5.9522-16.477-10.497-38.175-44.474-38.175-44.474l-0.9699-1.1258-0.96412,1.1258s-21.638,34.079-38.181,44.477c-5.0801,3.1929-11.396,4.8726-17.392,4.6416-19.515-0.75177-55.278-19.418-55.278-19.418l-1.3971-0.49072-0.27423,1.4577s-1.6896,40.323-10.825,57.588c-2.6373,4.9842-6.9981,9.3096-11.988,11.936-16.824,8.8554-56.055,10.536-56.055,10.536l-1.4606,0.27422,0.49649,1.3971s17.839,33.911,18.414,52.423c0.21868,7.0413-1.9598,14.4-5.753,20.336-10.222,15.998-43.218,37.096-43.218,37.096l-1.1229,0.96701,1.1229,0.96413s32.4,20.421,42.127,36.166c3.7301,6.0379,5.5008,13.564,5.1728,20.654-0.87518,18.917-18.832,53.601-18.832,53.601l-0.49072,1.3971,1.4548,0.27422s38.272,1.4909,54.574,10.259c6.2397,3.3561,11.534,8.9725,14.791,15.264,8.7113,16.827,10.499,55.867,10.499,55.867l0.27712,1.4606,1.4-0.49938s33.812-17.784,52.27-18.359c7.1269-0.22189,14.575,1.9808,20.584,5.8194,15.954,10.192,36.995,43.094,36.995,43.094l0.9699,1.1287,0.96701-1.1287s20.382-32.329,36.091-42.043c6.0797-3.7597,13.657-5.5552,20.798-5.2276,18.889,0.86639,53.517,18.806,53.517,18.806l1.4116,0.49072,0.26268-1.4606s1.4982-38.247,10.256-54.542c3.3576-6.2472,8.9727-11.554,15.27-14.817,16.824-8.7166,55.867-10.496,55.867-10.496l1.4577-0.28289-0.48784-1.3971s-17.808-33.857-18.39-52.34c-0.22333-7.0805,1.9556-14.483,5.7674-20.454z"/>
  </g>
  <path id="path4808" style="stroke-dasharray:none;stroke:#ff9b00;stroke-width:10;stroke-miterlimit:4;fill:#ff9d00;" d="M270.19,115.04c-74.39-11.71-144.19,39.75-155.39,114.64-11.72,74.39,39.74,144.19,114.63,155.39,74.9,11.21,144.19-39.74,155.9-114.63,11.21-74.39-40.25-144.19-115.14-155.4z" horiz-adv-x="1000" unicode="" glyph-name="icon"/>
 </g>
 <path id="path4-4" style="stroke:#969696;stroke-dasharray:none;stroke-miterlimit:4;stroke-width:15;fill:#ffffff;" d="m421.36,214.37c-4.6702-7.3101-10.458-13.808-17.362-19.493-24.13-19.04-49.933-21.535-70.968-19.975-11.529-45.217-40.786-71.024-84.37-71.473-12.59,0-24.57,2.5382-35.941,7.6146s-21.219,11.574-29.545,19.494c-8.3254,7.9192-14.924,17.869-19.798,29.849-5.4868,15.355-6.8295,23.692-7.0055,39.545-15.682-3.9634-37.045-4.9672-50.256,0.30459-15.839,6.9039-27.006,18.681-33.504,35.332-4.0611,11.168-5.2795,22.133-3.655,32.896,1.6244,10.762,5.9902,20.61,13.097,29.545,7.107,8.9345,16.042,15.432,26.803,19.493,7.5132,2.8428,14.924,4.2642,22.235,4.2642h218.69c17.463,0,33.504,2.7385,48.125-7.2113,35.583-25.102,42.547-69.324,23.453-100.18z" horiz-adv-x="1205.1" unicode="" glyph-name="cloud-6"/>
 <path id="path4" style="stroke-dasharray:none;stroke:#969696;stroke-width:11.99155712;stroke-miterlimit:4;fill:#3dade2;" d="m203.69,258.97-48.322,34.125c-10.211,7.1853-16.444,19.537-15.313,32.839,1.6508,20.05,19.322,34.914,39.372,33.263,20.05-1.6509,34.914-19.322,33.263-39.372l-5.017-58.997c-0.14954-1.9622-2.287-2.959-3.9835-1.8575z" horiz-adv-x="1000" unicode="" glyph-name="weather">
  <animateTransform id="anim1" from="0 -30" repeatCount="indefinite" attributeName="transform" to="-40 80" attributeType="xml" dur="1s" type="translate"/>
  <animate id="anim2" from="0" repeatCount="indefinite" attributeName="opacity" to="1" dur="1s"/>
 </path>
</svg>
