<?xml version="1.0" encoding="UTF-8" standalone="no"?>
<svg id="svg2" xmlns:rdf="http://www.w3.org/1999/02/22-rdf-syntax-ns#" xmlns="http://www.w3.org/2000/svg" height="500" width="500" version="1.1" xmlns:cc="http://creativecommons.org/ns#" xmlns:dc="http://purl.org/dc/elements/1.1/">
 <metadata id="metadata7">
  <rdf:RDF>
   <cc:Work rdf:about="">
    <dc:format>image/svg+xml</dc:format>
    <dc:type rdf:resource="http://purl.org/dc/dcmitype/StillImage"/>
    <dc:title/>
   </cc:Work>
  </rdf:RDF>
 </metadata>
 <g id="g2997" transform="translate(4.1697522e-6,40.000003)">
  <g id="g3892" style="fill:#969696;" transform="matrix(0.76666663,0,0,0.76666663,183.72336,170.70157)">
   <path id="path3894" d="M267.15,92.085c10.21-15.985,43.17-37.055,43.17-37.055l1.1258-0.9699-1.1258-0.96412s-32.415-20.436-42.156-36.186c-3.716-6.0088-5.49-13.498-5.167-20.555,0.86691-18.943,18.849-53.673,18.849-53.673l0.4965-1.4058-1.4577-0.27134s-38.377-1.4982-54.727-10.285c-6.1563-3.3084-11.385-8.8425-14.6-15.048-8.7467-16.88-10.539-56.052-10.539-56.052l-0.26846-1.4606-1.3942,0.48784s-33.966,17.844-52.507,18.445c-7.3552,0.23855-15.053-1.9982-21.26-5.9522-16.477-10.497-38.175-44.474-38.175-44.474l-0.9699-1.1258-0.96412,1.1258s-21.638,34.079-38.181,44.477c-5.0801,3.1929-11.396,4.8726-17.392,4.6416-19.515-0.75177-55.278-19.418-55.278-19.418l-1.3971-0.49072-0.27423,1.4577s-1.6896,40.323-10.825,57.588c-2.6373,4.9842-6.9981,9.3096-11.988,11.936-16.824,8.8554-56.055,10.536-56.055,10.536l-1.4606,0.27422,0.49649,1.3971s17.839,33.911,18.414,52.423c0.21868,7.0413-1.9598,14.4-5.753,20.336-10.222,15.998-43.218,37.096-43.218,37.096l-1.1229,0.96701,1.1229,0.96413s32.4,20.421,42.127,36.166c3.7301,6.0379,5.5008,13.564,5.1728,20.654-0.87518,18.917-18.832,53.601-18.832,53.601l-0.49072,1.3971,1.4548,0.27422s38.272,1.4909,54.574,10.259c6.2397,3.3561,11.534,8.9725,14.791,15.264,8.7113,16.827,10.499,55.867,10.499,55.867l0.27712,1.4606,1.4-0.49938s33.812-17.784,52.27-18.359c7.1269-0.22189,14.575,1.9808,20.584,5.8194,15.954,10.192,36.995,43.094,36.995,43.094l0.9699,1.1287,0.96701-1.1287s20.382-32.329,36.091-42.043c6.0797-3.7597,13.657-5.5552,20.798-5.2276,18.889,0.86639,53.517,18.806,53.517,18.806l1.4116,0.49072,0.26268-1.4606s1.4982-38.247,10.256-54.542c3.3576-6.2472,8.9727-11.554,15.27-14.817,16.824-8.7166,55.867-10.496,55.867-10.496l1.4577-0.28289-0.48784-1.3971s-17.808-33.857-18.39-52.34c-0.22333-7.0805,1.9556-14.483,5.7674-20.454z" style="fill:#969696;"/>
  </g>
  <g id="g3" style="stroke:#ffa900;stroke-miterlimit:4;stroke-dasharray:none;stroke-width:10;fill:#ffc800;" transform="matrix(0.69565217,0,0,0.69565217,189.86321,174.34188)">
   <path id="path5" style="stroke:#ffa900;stroke-miterlimit:4;stroke-dasharray:none;stroke-width:10;fill:#ffc800;" d="m267.15,92.085c10.205-15.985,43.172-37.055,43.172-37.055l1.1258-0.9699-1.1258-0.96412s-32.415-20.436-42.156-36.186c-3.716-6.0088-5.49-13.498-5.167-20.555,0.86691-18.943,18.849-53.673,18.849-53.673l0.4965-1.4058-1.4577-0.27134s-38.377-1.4982-54.727-10.285c-6.1563-3.3084-11.385-8.8425-14.6-15.048-8.7467-16.88-10.539-56.052-10.539-56.052l-0.26846-1.4606-1.3942,0.48784s-33.966,17.844-52.507,18.445c-7.3552,0.23855-15.053-1.9982-21.26-5.9522-16.477-10.497-38.175-44.474-38.175-44.474l-0.9699-1.1258-0.96412,1.1258s-21.638,34.079-38.181,44.477c-5.0801,3.1929-11.396,4.8726-17.392,4.6416-19.515-0.75177-55.278-19.418-55.278-19.418l-1.3971-0.49072-0.27423,1.4577s-1.6896,40.323-10.825,57.588c-2.6373,4.9842-6.9981,9.3096-11.988,11.936-16.824,8.8554-56.055,10.536-56.055,10.536l-1.4606,0.27422,0.49649,1.3971s17.839,33.911,18.414,52.423c0.21868,7.0413-1.9598,14.4-5.753,20.336-10.222,15.998-43.218,37.096-43.218,37.096l-1.1229,0.96701,1.1229,0.96413s32.4,20.421,42.127,36.166c3.7301,6.0379,5.5008,13.564,5.1728,20.654-0.87518,18.917-18.832,53.601-18.832,53.601l-0.49072,1.3971,1.4548,0.27422s38.272,1.4909,54.574,10.259c6.2397,3.3561,11.534,8.9725,14.791,15.264,8.7113,16.827,10.499,55.867,10.499,55.867l0.27712,1.4606,1.4-0.49938s33.812-17.784,52.27-18.359c7.1269-0.22189,14.575,1.9808,20.584,5.8194,15.954,10.192,36.995,43.094,36.995,43.094l0.9699,1.1287,0.96701-1.1287s20.382-32.329,36.091-42.043c6.0797-3.7597,13.657-5.5552,20.798-5.2276,18.889,0.86639,53.517,18.806,53.517,18.806l1.4116,0.49072,0.26268-1.4606s1.4982-38.247,10.256-54.542c3.3576-6.2472,8.9727-11.554,15.27-14.817,16.824-8.7166,55.867-10.496,55.867-10.496l1.4577-0.28289-0.48784-1.3971s-17.808-33.857-18.39-52.34c-0.22333-7.0805,1.9556-14.483,5.7674-20.454z"/>
  </g>
  <path id="path4808" style="stroke:#ff9b00;stroke-miterlimit:4;stroke-dasharray:none;stroke-width:6.95652151;fill:#ff9d00;" d="m264.05,116.12c-51.746-8.1518-100.3,27.645-108.1,79.746-8.1519,51.746,27.645,100.3,79.746,108.1,52.101,7.7974,100.3-27.645,108.45-79.746,7.7974-51.746-28-100.3-80.101-108.1z" horiz-adv-x="1000" unicode="" glyph-name="icon"/>
 </g>
 <path id="path4-4" style="stroke:#969696;stroke-miterlimit:4;stroke-dasharray:none;stroke-width:15;fill:#eeeeee;" d="m420.69,308.24c-4.6518-7.2812-10.416-13.753-17.293-19.416-24.035-18.965-49.736-21.45-70.688-19.897-11.484-45.038-40.624-70.743-84.037-71.191-12.54,0-24.473,2.5282-35.799,7.5845s-21.136,11.528-29.428,19.416c-8.2925,7.8879-14.866,17.798-19.72,29.731-5.4652,15.294-6.8024,23.598-6.9778,39.389-15.62-3.9478-36.899-4.9476-50.058,0.30339-15.776,6.8766-26.9,18.607-33.372,35.192-4.0451,11.124-5.2586,22.046-3.6406,32.765s5.9665,20.529,13.045,29.428c7.0789,8.8992,15.978,15.371,26.697,19.416,7.4834,2.8316,14.866,4.2473,22.147,4.2473h217.83c17.394,0,33.372,2.7277,47.934-7.1828,35.442-25.003,42.38-69.05,23.36-99.787z" horiz-adv-x="1205.1" unicode="" glyph-name="cloud-6">
  <animateTransform id="anim1" begin="0s;anim4.end" from="0 0" attributeName="transform" to="50 0" attributeType="xml" dur="1s" type="translate"/>
  <animateTransform id="anim2" begin="anim1.end" from="50 0" attributeName="transform" to="0 0" attributeType="xml" dur="1s" type="translate"/>
  <animateTransform id="anim3" begin="anim2.end" from="0 0" attributeName="transform" to="-60 0" attributeType="xml" dur="1s" type="translate"/>
  <animateTransform id="anim4" begin="anim3.end" from="-60 0" attributeName="transform" to="0 0" attributeType="xml" dur="1s" type="translate"/>
</path>
</svg>
