<svg width="100%" height="100%" viewBox="0 0 500 500" xmlns="http://www.w3.org/2000/svg">
 <metadata id="metadata7">image/svg+xml</metadata>

 <g>
  <title>background</title>
  <rect fill="none" id="canvas_background" height="402" width="582" y="-1" x="-1"/>
 </g>
 <g>
  <title>Layer 1</title>
  <path stroke="#969696" stroke-miterlimit="4" stroke-width="15" fill="#eeeeee" d="m421.36,214.37c-4.673,-7.3171 -10.457,-13.808 -17.361,-19.5c-24.12,-19.04 -49.93,-21.53 -70.97,-19.97c-11.53,-45.22 -40.79,-71.03 -84.37,-71.48c-12.59,0 -24.57,2.5382 -35.941,7.6146s-21.219,11.574 -29.545,19.493c-8.3254,7.9192 -14.924,17.869 -19.798,29.849c-5.4868,15.355 -6.8295,23.692 -7.0055,39.545c-15.682,-3.9634 -37.045,-4.9672 -50.256,0.30459c-15.839,6.9039 -27.006,18.681 -33.504,35.332c-4.0611,11.168 -5.2795,22.133 -3.655,32.896c1.6244,10.762 5.9902,20.61 13.097,29.545c7.107,8.9345 16.042,15.432 26.803,19.493c7.5132,2.8428 14.924,4.2642 22.235,4.2642l218.69,0c17.463,0 33.504,2.7385 48.125,-7.2113c35.583,-25.102 42.547,-69.324 23.453,-100.18l0.0025,0.00491z" id="path4-4"/>
  <path stroke="#969696" stroke-width="11.991557" stroke-miterlimit="4" fill="#3dade2" d="m207.6,259.21l-48.322,34.125c-10.211,7.1853 -16.444,19.537 -15.313,32.839c1.6508,20.05 19.322,34.914 39.372,33.263c20.05,-1.6509 34.914,-19.322 33.263,-39.372l-5.017,-58.997c-0.14954,-1.9622 -2.287,-2.959 -3.9835,-1.8575l0.0005,-0.0005z" id="path4"/>
  <metadata transform="matrix(0.11111111773384952,0,0,0.11111111773384952,0,0) " id="svg_26">image/svg+xml</metadata>
  <g stroke="null" transform="matrix(0.9719359093596962,0,0,0.963791890771988,-3532.306500091373,-283.3769908247964) " id="svg_28">
   <title stroke="null" transform="translate(94.65644836425781,-117.24523162841797) translate(8.230995178222656,68.4795150756836) translate(20.837936401367188,19.561201095581055) translate(118.20590209960938,91.16332244873047) translate(1538.9998779296875,-1853.9998779296875) translate(1959.9998779296875,0) translate(0,2044.592041015625) ">background</title>
   <rect stroke="null" x="3739.931038" y="251.55097" width="582" height="402" id="svg_25" fill="none"/>
  </g>
  <path stroke="#969696" id="svg_16" d="m342.290919,371.544702q2.883248,1.539561 3.659533,4.728556q0.776266,3.188995 -0.776266,6.04818l-3.881329,6.707895q-1.663468,2.859089 -4.87941,3.628869q-3.215942,0.769771 -5.988292,-0.769761l-16.52291,-9.347143l0,18.804544q0,3.188995 -2.328758,5.498336q-2.328758,2.309245 -5.544797,2.419214l-7.873556,0q-3.215942,0 -5.655695,-2.419214q-2.439656,-2.419214 -2.328758,-5.498336l0,-18.804544l-16.41211,9.347143q-2.883248,1.64953 -6.099287,0.769761q-3.215942,-0.87972 -4.768512,-3.628869l-3.992227,-6.707895q-1.55257,-2.859089 -0.776266,-6.04818q0.776266,-3.188995 3.770431,-4.728556l16.41211,-9.457112l-16.41211,-9.457112q-2.883248,-1.539561 -3.770431,-4.728556q-0.887164,-3.188995 0.776266,-6.04818l3.992227,-6.707895q1.663468,-2.859089 4.768512,-3.628869q3.105044,-0.769761 6.099287,0.769761l16.41211,9.347143l0,-18.804544q0,-3.188995 2.328758,-5.498336q2.328758,-2.309245 5.655695,-2.419214l7.873556,0q3.215942,0 5.544797,2.419214q2.328758,2.419214 2.328758,5.498336l0,18.804544l16.52291,-9.347143q2.883248,-1.64953 5.988292,-0.769761q3.105044,0.87973 4.87941,3.628869l3.881329,6.707895q1.663468,2.859089 0.776266,6.04818q-0.887154,3.188995 -3.659533,4.728556l-16.41211,9.457112l16.41211,9.457112z" fill="#ffffff" stroke-width="11.997" stroke-miterlimit="4"/>
  <metadata stroke="null" transform="translate(29.837358474731445,-11.413251876831055) translate(1.028874397277832,-1.0375683307647705) translate(94.65644836425781,-117.24523162841797) translate(8.230995178222656,68.4795150756836) translate(20.837936401367188,19.561201095581055) translate(118.20590209960938,91.16332244873047) translate(1538.9998779296875,-1853.9998779296875) translate(1959.9998779296875,0) translate(0,2044.592041015625) matrix(0.9719359093596962,0,0,0.963791890771988,-3638.1585605752484,-292.07056327694846) " id="svg_15">image/svg+xml</metadata>
 </g>
</svg>