<?xml version="1.0" encoding="UTF-8" standalone="no"?>
<svg id="svg2" xmlns:rdf="http://www.w3.org/1999/02/22-rdf-syntax-ns#" xmlns="http://www.w3.org/2000/svg" height="500" width="500" version="1.1" xmlns:cc="http://creativecommons.org/ns#" xmlns:dc="http://purl.org/dc/elements/1.1/">
 <metadata>
  <rdf:RDF>
   <cc:Work rdf:about="">
    <dc:format>image/svg+xml</dc:format>
    <dc:type rdf:resource="http://purl.org/dc/dcmitype/StillImage"/>
    <dc:title/>
   </cc:Work>
  </rdf:RDF>
 </metadata>
 <path d="m289.58 193.19-46.527 144.13 56.035 7.834-131.21 148.85 59.893-118.98-56.291-7.7269z" fill="#ffc800" stroke="#969696" stroke-linejoin="round" stroke-width="11.992" glyph-name="flash-2" horiz-adv-x="928" unicode="">
  <animate id="anim1" begin="0s;anim2.end" from="#ffffff" attributeName="fill" to="#ffffff" dur="1s"/>
  <animate id="anim2" begin="anim1.end" from="#ffffff" attributeName="fill" to="#ffc800" dur="0.5s"/>
 </path>
 <path d="m421.36 214.37c-4.67-7.32-10.45-13.81-17.36-19.5-24.12-19.04-49.93-21.53-70.97-19.97-11.53-45.22-40.79-71.03-84.37-71.48-12.59 0-24.57 2.5382-35.941 7.6146s-21.219 11.574-29.545 19.494c-8.3254 7.9192-14.924 17.869-19.798 29.849-5.4868 15.355-6.8295 23.692-7.0055 39.545-15.682-3.9634-37.045-4.9672-50.256 0.30459-15.839 6.9039-27.006 18.681-33.504 35.332-4.0611 11.168-5.2795 22.133-3.655 32.896 1.6244 10.762 5.9902 20.61 13.097 29.545 7.107 8.9345 16.042 15.432 26.803 19.494 7.5132 2.8428 14.924 4.2642 22.235 4.2642h218.69c17.463 0 33.504 2.7385 48.125-7.2113 35.583-25.102 42.547-69.324 23.453-100.18z" fill="#ccc" stroke="#969696" stroke-width="15" glyph-name="cloud-6" horiz-adv-x="1205.1" unicode=""/>
</svg>
