<?xml version="1.0" encoding="UTF-8" standalone="no"?>
<svg id="svg2" xmlns:rdf="http://www.w3.org/1999/02/22-rdf-syntax-ns#" xmlns="http://www.w3.org/2000/svg" height="500" width="500" version="1.1" xmlns:cc="http://creativecommons.org/ns#" xmlns:xlink="http://www.w3.org/1999/xlink" xmlns:dc="http://purl.org/dc/elements/1.1/">
 <metadata id="metadata7">
  <rdf:RDF>
   <cc:Work rdf:about="">
    <dc:format>image/svg+xml</dc:format>
    <dc:type rdf:resource="http://purl.org/dc/dcmitype/StillImage"/>
    <dc:title/>
   </cc:Work>
  </rdf:RDF>
 </metadata>
 <path id="path4-4" style="opacity:0.9;stroke:#969696;stroke-miterlimit:4;stroke-dasharray:none;stroke-width:15;fill:#eeeeee;" d="m356.03,160.11c-3.8841-6.0795-8.6971-11.484-14.439-16.212-20.068-15.835-41.528-17.91-59.022-16.613-9.5886-37.605-33.92-59.069-70.168-59.442-10.47,0-20.434,2.1109-29.891,6.3329-9.4571,4.2219-17.648,9.6259-24.571,16.212-6.924,6.5862-12.412,14.861-16.465,24.825-4.5632,12.77-5.6798,19.704-5.8263,32.889-13.042-3.2963-30.81-4.1311-41.797,0.25332-13.172,5.7418-22.46,15.537-27.865,29.384-3.3775,9.2882-4.3908,18.407-3.0398,27.358,1.351,8.9504,4.9818,17.141,10.893,24.571,5.9107,7.4305,13.341,12.835,22.292,16.212,6.2484,2.3643,12.412,3.5464,18.492,3.5464h181.88c14.523,0,27.865,2.2775,40.024-5.9974,29.593-20.877,35.386-57.655,19.505-83.319z" horiz-adv-x="1205.1" unicode="" glyph-name="cloud-6">
   <animateTransform id="anim1" begin="0s;anim2.end" from="0 0" attributeName="transform" to="-60 0" attributeType="xml" dur="3s" type="translate"/>
   <animateTransform id="anim2" begin="anim1.end" from="-60 0" attributeName="transform" to="0 0" attributeType="xml" dur="3s" type="translate"/>
 </path>
 <path id="path9399" style="opacity:0.9;stroke:#969696;stroke-miterlimit:4;stroke-dasharray:none;stroke-width:15;fill:#cccccc;" d="m337.79,342.55c-3.8841-6.0795-8.6971-11.484-14.439-16.212-20.068-15.835-41.528-17.91-59.022-16.613-9.5886-37.605-33.92-59.069-70.168-59.442-10.47,0-20.434,2.111-29.891,6.3329-9.4571,4.2219-17.648,9.6259-24.571,16.212-6.924,6.5862-12.412,14.861-16.465,24.825-4.5632,12.77-5.6799,19.704-5.8263,32.889-13.042-3.2963-30.81-4.1311-41.797,0.25331-13.172,5.7418-22.46,15.537-27.865,29.384-3.3775,9.2882-4.3908,18.407-3.0398,27.358,1.351,8.9504,4.9818,17.141,10.893,24.571,5.9107,7.4305,13.341,12.835,22.292,16.212,6.2484,2.3643,12.412,3.5464,18.492,3.5464h181.88c14.523,0,27.865,2.2776,40.024-5.9974,29.593-20.877,35.386-57.655,19.505-83.319z" horiz-adv-x="1205.1" unicode="" glyph-name="cloud-6">
   <animateTransform id="anim3" begin="0s;anim4.end" from="0 0" attributeName="transform" to="70 0" attributeType="xml" dur="1.5s" type="translate"/>
   <animateTransform id="anim4" begin="anim3.end" from="70 0" attributeName="transform" to="0 0" attributeType="xml" dur="1.5s" type="translate"/>
 </path>
 <path id="path9401" style="opacity:0.9;stroke:#969696;stroke-miterlimit:4;stroke-dasharray:none;stroke-width:15;fill:#ffffff;" d="m447.25,220.32c-3.8841-6.0795-8.6971-11.484-14.439-16.212-20.068-15.835-41.528-17.91-59.022-16.613-9.5886-37.605-33.92-59.069-70.168-59.442-10.47,0-20.434,2.1109-29.891,6.3328-9.4571,4.2219-17.648,9.6259-24.571,16.212-6.9239,6.5862-12.412,14.861-16.465,24.825-4.5632,12.77-5.6798,19.704-5.8263,32.889-13.042-3.2963-30.81-4.1311-41.797,0.25331-13.172,5.7418-22.46,15.537-27.865,29.384-3.3775,9.2882-4.3908,18.407-3.0398,27.358,1.351,8.9504,4.9818,17.141,10.893,24.571,5.9107,7.4305,13.341,12.835,22.292,16.212,6.2484,2.3643,12.412,3.5464,18.492,3.5464h181.88c14.523,0,27.865,2.2775,40.024-5.9974,29.593-20.877,35.386-57.655,19.505-83.319z" horiz-adv-x="1205.1" unicode="" glyph-name="cloud-6">
   <animateTransform id="anim5" begin="0s;anim6.end" from="0 0" attributeName="transform" to="-60 0" attributeType="xml" dur="1.5s" type="translate"/>
   <animateTransform id="anim6" begin="anim5.end" from="-60 0" attributeName="transform" to="0 0" attributeType="xml" dur="1.5s" type="translate"/>
 </path>
</svg>
