<?xml version="1.0" encoding="UTF-8" standalone="no"?>
<svg id="svg2" xmlns:rdf="http://www.w3.org/1999/02/22-rdf-syntax-ns#" xmlns="http://www.w3.org/2000/svg" height="500" width="500" version="1.1" xmlns:cc="http://creativecommons.org/ns#" xmlns:dc="http://purl.org/dc/elements/1.1/">
 <metadata id="metadata7">
  <rdf:RDF>
   <cc:Work rdf:about="">
    <dc:format>image/svg+xml</dc:format>
    <dc:type rdf:resource="http://purl.org/dc/dcmitype/StillImage"/>
    <dc:title/>
   </cc:Work>
  </rdf:RDF>
 </metadata>
 <path id="path4478" style="fill:#969696;" d="M182.5,85c-4.15,0-7.5,3.36-7.5,7.5s3.35,7.5,7.5,7.5h195c4.15,0,7.5-3.36,7.5-7.5s-3.35-7.5-7.5-7.5h-195zm-75,45c-4.15,0-7.5,3.36-7.5,7.5-0.001,4.14,3.35,7.5,7.5,7.5h105c4.15,0,7.5-3.36,7.5-7.5s-3.35-7.5-7.5-7.5h-105zm135,0c-4.15,0-7.5,3.36-7.5,7.5s3.35,7.5,7.5,7.5h165c4.15,0,7.5-3.36,7.5-7.5s-3.35-7.5-7.5-7.5h-165zm-180,45c-4.148,0-7.5,3.36-7.5,7.5s3.352,7.5,7.5,7.5h240c4.15,0,7.5-3.36,7.5-7.5s-3.35-7.5-7.5-7.5h-240zm270,0c-4.15,0-7.5,3.36-7.5,7.5s3.35,7.5,7.5,7.5h60c4.15,0,7.5-3.36,7.5-7.5s-3.35-7.5-7.5-7.5h-60zm-300,45c-4.148,0-7.5,3.36-7.5,7.5s3.352,7.5,7.5,7.5h90c4.15,0,7.5-3.36,7.5-7.5s-3.35-7.5-7.5-7.5h-90zm120,0c-4.15,0-7.5,3.36-7.5,7.5s3.35,7.5,7.5,7.5h315c4.15,0,7.5-3.36,7.5-7.5s-3.35-7.5-7.5-7.5h-315zm-75,45c-4.148,0-7.5,3.36-7.5,7.5s3.352,7.5,7.5,7.5h165c4.15,0,7.5-3.36,7.5-7.5s-3.35-7.5-7.5-7.5h-165zm195,0c-4.15,0-7.5,3.36-7.5,7.5s3.35,7.5,7.5,7.5h165c4.15,0,7.5-3.36,7.5-7.5s-3.35-7.5-7.5-7.5h-165zm-165,45c-4.15,0-7.5,3.36-7.5,7.5s3.35,7.5,7.5,7.5h60c4.15,0,7.5-3.36,7.5-7.5s-3.35-7.5-7.5-7.5h-60zm90,0c-4.15,0-7.5,3.36-7.5,7.5s3.35,7.5,7.5,7.5h165c4.15,0,7.5-3.36,7.5-7.5s-3.35-7.5-7.5-7.5h-165zm-120,45c-4.148,0-7.5,3.36-7.5,7.5s3.352,7.5,7.5,7.5h135c4.15,0,7.5-3.36,7.5-7.5s-3.35-7.5-7.5-7.5h-135zm165,0c-4.15,0-7.5,3.36-7.5,7.5s3.35,7.5,7.5,7.5h150c4.15,0,7.5-3.36,7.5-7.5s-3.35-7.5-7.5-7.5h-150zm-90,45c-4.15,0-7.5,3.36-7.5,7.5s3.35,7.5,7.5,7.5h195c4.15,0,7.5-3.36,7.5-7.5s-3.35-7.5-7.5-7.5h-195z">
   <animate id="anim1" begin="0s;anim2.end" from="#969696" attributeName="fill" to="#efefef" dur="1.5s"/>
   <animate id="anim2" begin="anim1.end" from="#efefef" attributeName="fill" to="#969696" dur="1.5s"/>
 </path>
</svg>
